<svg xmlns="http://www.w3.org/2000/svg" viewBox="0 0 336.43 120.66"><defs><style>.cls-1{fill:#231f20;}</style></defs><title>Black Estate Logo PDF</title><g id="Layer_2" data-name="Layer 2"><path class="cls-1" d="M366.55,405v-4.29c-10.56-1-11.88-2-11.88-12.86V287.6a126.81,126.81,0,0,1-24.41,5.78v3.95c10.39.83,11.38,1.32,11.38,12.54v78c0,10.89-1.48,11.88-11.88,12.86V405Zm173.81,0H503.57v-4.29c10.4-1,11.88-2,11.88-12.86v-78c0-11.22-1-11.71-11.38-12.54v-3.95a126.81,126.81,0,0,0,24.41-5.78v76.71h3.14c6.73,0,11.09-.58,14.38-3.21,5.15-4,7.25-8.5,7.25-15.62,0-8.66-3.35-14-8.32-16.87l.59-1.3,8.34-2.9a28.41,28.41,0,0,1,2.95,1.68c5.28,3.43,8.71,9.36,8.71,17.28,0,11.34-7,18.33-16.75,22.55,2.24,4.35,7.78,13.19,11.74,19.12,4.75,6.86,7.38,10.29,10.68,13.72,3.56,4,6.6,5.41,9.5,6.2l-.25,1.6c-1,1.13-2.11,1.69-4.5,1.7h-.4c-10-.53-17.83-3.43-23.76-12-4.62-6.47-9.37-14.65-13.33-21.11-2.24-3.69-4.85-5.27-8.94-5.27h-1v18c0,10.89,1.32,11.88,11.88,12.86Zm-134.83-93c.08-.19-.26-.49-.68-.49a.38.38,0,0,0-.34.15,9.15,9.15,0,0,1-7.72,5.15h-4.13a2,2,0,0,1-2.2-2.23v-9.32h4.77c2,0,3.07.49,3.53,4.17,0,.15.22.3.53.3s.53-.15.53-.3c0-1.9-.23-2.92-.23-4.7s.23-2.76.23-4.66c0-.19-.27-.3-.53-.3s-.53.11-.53.3c-.46,3.68-1.56,4-3.53,4h-4.77v-8.45a2,2,0,0,1,2.2-2.27h3.82a5.81,5.81,0,0,1,6,4.47.44.44,0,0,0,.41.27c.42,0,.72-.19.65-.46a36.75,36.75,0,0,1-1.25-5.72c-2.39.12-7.27.23-9.81.23s-7.39-.11-9.77-.23c-.19,0-.3.27-.3.53s.11.53.3.53c3.67.46,3.9,1.25,3.9,3.22V314.1c0,1.93-.23,2.76-3.9,3.18-.19,0-.3.23-.3.53s.11.53.3.53c2.38-.08,7.65-.23,10.15-.23s7.8.15,10.18.23a49.64,49.64,0,0,1,2.5-6.25m45.84,4.58c0-.45-.38-.79-.57-.64a2.32,2.32,0,0,1-1.48.76c-.56,0-1.32-.31-1.28-2.12l.26-8.56a4.27,4.27,0,0,0-4.58-4.7c-2.92,0-7.58,2.65-7.58,4.66a1.29,1.29,0,0,0,1.37,1.33c1.21,0,2.23-.8,2.27-2.58,0-1.17,1.33-1.89,2.69-1.89s2.5,1.1,2.46,3.06l-.11,3c-2.46.64-9.21,2.5-9.21,6.28a3.66,3.66,0,0,0,3.87,3.68,7.36,7.36,0,0,0,5.3-2.08,2.93,2.93,0,0,0,2.92,1.93,4.55,4.55,0,0,0,3.52-1.75.56.56,0,0,0,.15-.34m-6.59-6.43-.15,5.07a3.87,3.87,0,0,1-3.3,1.74c-1.32,0-2.08-1-2.08-2.69,0-2.38,2.69-3.48,5.53-4.12m-25.39,3.22c0-4.59-8.33-4.74-8.33-8.26,0-1.63.91-2.58,2.95-2.58,1.59,0,2.76,1.33,3,3.11,0,.19.26.3.53.3s.57-.15.53-.3c-.11-1.14-.19-2.46-.23-3.79-.75,0-2.38-.53-4.05-.53-3,0-5.79,2.12-5.79,4.85,0,5.57,8.18,4.77,8.18,8.48a2.72,2.72,0,0,1-3,3,5.15,5.15,0,0,1-4.4-3.49c0-.19-.26-.3-.53-.3s-.57.15-.53.3c.19,1,.53,2.69.68,4,1.14,0,3.07.68,4.74.68,3.33,0,6.21-2.27,6.21-5.45m57.94-7.54c0,.6-.31.95-2.2,1l-5.26.15c.45-2.38,1.85-4.43,4-4.43a3.26,3.26,0,0,1,3.49,3.3m3.44,1.66a6.71,6.71,0,0,0-6.93-6.17c-5,0-8.06,4.28-8.06,8.86,0,4.81,3.48,8.64,8.06,8.64a8.34,8.34,0,0,0,6.71-3.94.53.53,0,0,0,.11-.3c0-.53-.45-.84-.57-.65a6.61,6.61,0,0,1-4.92,2.54c-3.37,0-5.57-2.08-5.57-6.32a18.31,18.31,0,0,1,.12-2.12h10.37c.42,0,.68-.19.68-.54m-47.68-4.31c0-.57-.19-1-.49-1H427l.15-3.63c0-.15-.26-.3-.53-.3a.63.63,0,0,0-.53.3,15.34,15.34,0,0,1-4.58,4.39.75.75,0,0,0-.34.57.46.46,0,0,0,.41.49h1.44a.48.48,0,0,1,.46.53l-.08,9.21a4.5,4.5,0,0,0,4.73,5,6.43,6.43,0,0,0,4.4-1.67.61.61,0,0,0,.19-.42c0-.34-.27-.72-.46-.6a5,5,0,0,1-2.8.72c-1.78,0-2.54-1.18-2.54-3.56v-9.09l5.65.15c.3,0,.49-.42.49-1m30.46,0c0-.57-.19-1-.49-1h-5.57l.16-3.63c0-.15-.27-.3-.53-.3a.63.63,0,0,0-.54.3A15.34,15.34,0,0,1,452,303a.75.75,0,0,0-.34.57.46.46,0,0,0,.42.49h1.44a.48.48,0,0,1,.45.53l-.07,9.21a4.49,4.49,0,0,0,4.73,5,6.4,6.4,0,0,0,4.39-1.67.57.57,0,0,0,.19-.42c0-.34-.26-.72-.45-.6a5,5,0,0,1-2.8.72c-1.78,0-2.54-1.18-2.54-3.56v-9.09l5.64.15c.3,0,.49-.42.49-1M409.9,391.19c-3.13,3-8.9,5.77-13.19,5.94-5.11,0-11.71-4.13-11.71-12.7,0-5.94,3.63-9.07,10.06-12.05,3.46-1.64,11.38-5.11,14.84-6.92ZM436,398.61l-1.65-4.29a12.53,12.53,0,0,1-5.94,1.82c-2.81,0-5.77-2.48-5.77-9.9V355.56c0-8.58-1.65-15.34-7.43-20.12A21.47,21.47,0,0,0,401.66,331c-9.4,1.82-20.13,8.25-24.74,11.55-3.14,2.31-5.28,4.12-5.28,6.6,0,3.79,4.29,7.09,7.26,7.09,2.31,0,4.12-1.15,4.78-4,1.32-4.95,2.8-8.58,4.95-10.72a9.3,9.3,0,0,1,7.42-3.3c8.25,0,13.85,6.76,13.85,18.64v3c-3.62,3-15.67,7.42-25.56,10.72C375.27,373.7,371,378.82,371,386.9c0,10.39,8.08,20.12,19.79,20.12,5,0,12.87-6.1,19.46-10.55a17.26,17.26,0,0,0,4,7.42A13.47,13.47,0,0,0,422,407ZM299.68,346.82c9.24-2.48,22.27-8.91,22.27-24.58,0-7.59-3.3-14.84-9.24-18.8-5.11-3.63-12.37-5.61-24.74-5.61H245.58v4.62c13.2,1,13.86,2,13.86,15.67v66.47c0,13.86-1,14.85-15.18,15.83V405h36.45c13,0,23.92-2,32.33-6.59,9.73-5.45,15.84-13.86,15.84-24.91,0-16.5-12.87-23.75-29.2-26.23Zm-26.39-1.49V313c0-5.44.66-7.25,2.15-8.24,1.65-1,5.27-1.65,9.4-1.65,15.67,0,21.93,9.89,21.93,21.11,0,13.86-7.58,21.11-25.73,21.11Zm0,5.45h7.59c20.12,0,31.67,7.42,31.67,24.41,0,17.15-12,24.08-25.57,24.25-10.55,0-13.69-3.14-13.69-15Zm225.89,31.31c-6.24,8.3-11.25,11.19-18.24,12.42-9.1,1.61-25.58-1.84-29.56-24.41-3-17.06,4.84-27.65,15.56-29.54a23.89,23.89,0,0,1,17.42,3.79c1.69,1,2.59,1.39,3.4,1.24,1.79-.31,4.73-4.51,4.13-7.93-.32-1.78-1.06-3.16-3.49-4.57-3-1.66-8.7-2.82-15.2-1.68-6.34,1.12-15.76,5.34-23.06,13.33-9.39,10.37-13,21-10.76,33.48,3.06,17.39,18,31.83,38.47,28.23,9.59-1.69,19.21-10.76,24.7-21.44Z" transform="translate(-244.26 -287.6)"/></g></svg>